<svg xmlns="http://www.w3.org/2000/svg" width="32" height="32" viewBox="0 0 32 32" fill="none">
  <rect width="32" height="32" rx="10" fill="#1F7A56" />
  <path
    d="M9.6 22.4c0-4.48 3.12-8.48 7.44-9.68 2.48-.72 5.12-.32 7.28 1.04-1.2 1.76-3.2 3.04-5.52 3.36-1.6.2-3.04-.12-4.16-.76.08 2.24 1.28 4.16 3.44 5.04-1.12 1.68-3.04 2.72-5.12 2.72-1.32 0-2.56-.4-3.36-1.12Z"
    fill="#7EC27F"
  />
  <path
    d="M11.6 9.6c1.12-1.44 2.96-2.4 4.96-2.4 3.68 0 6.64 2.96 6.64 6.64 0 1.2-.32 2.32-.88 3.28-1.28-2.24-3.52-3.76-6.32-3.76-.96 0-1.92.2-2.8.56-.24-1.12-.08-2.32.4-3.36Z"
    fill="#EBF5EF"
  />
</svg>
